inDegrees=no
num_controls=7
num_derivatives=13
num_iterations=168
num_multipliers=7
num_parameters=0
num_slacks=7
num_states=26
objective=5.350695
objective_accelerations=0.345566
objective_balance=0.041985
objective_effort=0.367621
objective_height=4.570542
objective_ligament=0.024981
solver_duration=1748.728465
status=Solve_Succeeded
success=true
DataType=double
version=3
OpenSimVersion=4.4-2022-07-23-0e9fedc
endheader
time	/jointset/ground_pelvis/pelvis_tilt/value	/jointset/ground_pelvis/pelvis_tx/value	/jointset/ground_pelvis/pelvis_ty/value	/jointset/hip_l/hip_flexion_l/value	/jointset/hip_l/hip_adduction_l/value	/jointset/hip_l/hip_rotation_l/value	/jointset/back/lumbar_extension/value	/jointset/patellofemoral_l/patellar_flexion_l/value	/jointset/knee_l/knee_flexion_l/value	/jointset/knee_l/knee_adduction_l/value	/jointset/knee_l/knee_rotation_l/value	/jointset/ankle_l/ankle_angle_l/value	/jointset/subtalar_l/subtalar_angle_l/value	/jointset/ground_pelvis/pelvis_tilt/speed	/jointset/ground_pelvis/pelvis_tx/speed	/jointset/ground_pelvis/pelvis_ty/speed	/jointset/hip_l/hip_flexion_l/speed	/jointset/hip_l/hip_adduction_l/speed	/jointset/hip_l/hip_rotation_l/speed	/jointset/back/lumbar_extension/speed	/jointset/patellofemoral_l/patellar_flexion_l/speed	/jointset/knee_l/knee_flexion_l/speed	/jointset/knee_l/knee_adduction_l/speed	/jointset/knee_l/knee_rotation_l/speed	/jointset/ankle_l/ankle_angle_l/speed	/jointset/subtalar_l/subtalar_angle_l/speed	/forceset/tau_hip_flexion_l	/forceset/tau_hip_adduction_l	/forceset/tau_hip_rotation_l	/forceset/tau_knee_flexion_l	/forceset/tau_ankle_angle_l	/forceset/tau_subtalar_angle_l	/forceset/tau_lumbar_extension	lambda_cid13_p0	lambda_cid13_p1	lambda_cid13_p2	lambda_cid13_p3	lambda_cid13_p4	lambda_cid13_p5	lambda_cid14_p0	/jointset/ground_pelvis/pelvis_tilt/accel	/jointset/ground_pelvis/pelvis_tx/accel	/jointset/ground_pelvis/pelvis_ty/accel	/jointset/hip_l/hip_flexion_l/accel	/jointset/hip_l/hip_adduction_l/accel	/jointset/hip_l/hip_rotation_l/accel	/jointset/back/lumbar_extension/accel	/jointset/patellofemoral_l/patellar_flexion_l/accel	/jointset/knee_l/knee_flexion_l/accel	/jointset/knee_l/knee_adduction_l/accel	/jointset/knee_l/knee_rotation_l/accel	/jointset/ankle_l/ankle_angle_l/accel	/jointset/subtalar_l/subtalar_angle_l/accel	gamma_cid13_p0	gamma_cid13_p1	gamma_cid13_p2	gamma_cid13_p3	gamma_cid13_p4	gamma_cid13_p5	gamma_cid14_p0
0.5	-0.02194832509999581	-0.005514642312953145	0.8480913740878457	0.7048666382878933	-0.3354297020945629	-0.1102795148098028	-0.7655478367067822	0.7880250256211994	0.788025025621316	-0.137379298260619	-0.1745319556059419	0.1587296895054285	0.01064620626003691	0.06078625848157518	-0.101701256190652	-0.2592759134753504	0.9982139770137921	-0.05380730470405642	0.490879135786706	-0.8483609215986715	1.426104881916644	1.426104881916517	0.08288440845855234	2.861553395991075e-06	0.4666825782745184	0.09929355840368631	-0.213689348624165	0.02630317142873652	-0.001067074175441248	-0.2317599151076019	0.04794668017929492	0.04569863164003345	0.2910595290672582	-28.75959321864599	-17.43048366211422	5.316304084708117	-3.494391640707079	-702.5840019860988	-80.43313305315968	-14.93013501570186	0.0927376925043706	0.4261064888284642	-0.1147910264891341	-1.115820472195444	0.2794488447611106	-0.4297381075230332	1.475653701150626	-1.137233842425595	-1.137233842425594	-0.1420054127319187	0.01238862535631036	-0.1505510262385549	0.3090151852125	-5.073443178575961e-08	-4.295273993710969e-07	1.589144279487123e-07	-4.74944983769787e-08	-5.992225224782809e-08	-2.14190195343344e-07	-6.280756774165613e-08
0.51	-0.02133600467096308	-0.00651030887677602	0.8454934303368949	0.7147915536061911	-0.3359541275465918	-0.105393263535425	-0.7739565367641831	0.8022270730794883	0.8022270730795185	-0.1365578902245117	-0.1745319300611985	0.1633881183697025	0.01165398678112412	0.06167288052097249	-0.09742775747649582	-0.2602539236524851	0.9866183660219097	-0.05108558766543907	0.4863044913174449	-0.833279424934087	1.414096653896894	1.414096653896824	0.08139135364430979	2.849120746358515e-07	0.4649321083675294	0.102235475634276	-0.2180258582817365	0.02707144636787158	-0.001097618569817288	-0.2345540064151222	0.04581665260108959	0.04590825140641788	0.2959263784016951	-29.60021350861386	-17.35593869577883	5.283406405765551	-3.206461272027074	-705.591105637192	-80.34092382447643	-14.41278426533634	0.08587960465682924	0.4286066028515648	-0.08047934820630136	-1.204042185200581	0.2673846997578767	-0.4813760618193024	1.539347391366511	-1.263799127191158	-1.263799127182554	-0.1538918477115805	-0.00685152647562852	-0.1979711863077902	0.2827694360909417	-4.27248717560324e-08	-3.895801934317229e-07	1.310957822642365e-07	-4.715378373074762e-08	-4.804105541004306e-08	-1.900988568041902e-07	-5.542101610199478e-08
0.52	-0.02071496699254022	-0.007463113445429049	0.8428874718171966	0.7245959906600652	-0.3364515655149655	-0.1005547683947722	-0.7822114319064881	0.8163028018884934	0.8163028018884367	-0.1357516000029405	-0.1745319844263741	0.1680269072922318	0.01269038436333899	0.06252970836035622	-0.09312885715668281	-0.2608788672248507	0.9741183241293865	-0.04840980797299477	0.48132790904052	-0.8175999385793262	1.40084115205949	1.400841152059477	0.07986084555242426	-1.312043321726123e-05	0.4627545899253917	0.1050169706292165	-0.2223623679392969	0.02783972130702803	-0.001128162964250173	-0.2373480977226331	0.04368662502289262	0.04611787117283109	0.3007932277361341	-30.44352297565029	-17.28113930194418	5.250715702657788	-2.943155128518562	-708.6628698647324	-80.26972082051857	-13.89308067556998	0.08677885250171151	0.4311868099597935	-0.04417770553530259	-1.296706652323604	0.2702613755265068	-0.5101256690557712	1.595251639185907	-1.386688605956227	-1.386688605956207	-0.1494960682605021	0.01022288456222028	-0.2359607332683355	0.2769307380826559	-3.909441024076837e-08	-3.443219246194982e-07	1.29248906893588e-07	-4.317744448776043e-08	-4.11109045390527e-08	-1.719183601840795e-07	-5.090513529249697e-08
0.53	-0.02008552860030643	-0.008372833073512019	0.8402770387544414	0.7342710251984037	-0.3369224757976495	-0.09576786083183308	-0.7903066216994221	0.8302398643826175	0.8302398643826381	-0.1349608208145837	-0.1745320887093174	0.1726418430645679	0.01375380159256825	0.06335325929475091	-0.08881368354272549	-0.261147140429567	0.9607428845664473	-0.04578342352564613	0.4759929189792265	-0.8013487154449791	1.386371095259561	1.386371095259497	0.07828554913720639	-8.715903824796646e-06	0.4601642221715621	0.1076354409359399	-0.2265186165334445	0.02856526857718196	-0.001173014965134936	-0.2402189005468441	0.04161199080166787	0.04624727901872948	0.3054945970162798	-31.27011213693588	-17.16976573128028	5.206864362208983	-2.645142273605615	-711.6821456383029	-80.15097495352832	-13.37170359834065	0.07943343545926404	0.4318821568351423	-0.009068887614546241	-1.379820389713627	0.2571626063920207	-0.5543338857199619	1.653453335064912	-1.507192236305948	-1.507192236313693	-0.1630082970123544	-0.004575080660998106	-0.2808363063495292	0.2496858852622744	-3.579146475549397e-08	-2.996905168187216e-07	1.296769114866525e-07	-3.877112988639249e-08	-3.514718739850894e-08	-1.540799186333657e-07	-4.671460954616288e-08
0.54	-0.0194479966544222	-0.009239361061511296	0.8376657396077042	0.7438079337848237	-0.3373674551104492	-0.09103613281171459	-0.7982366201241122	0.8440262207048863	0.8440262207049803	-0.1341860869641566	-0.1745321738105261	0.1772288228573844	0.01484247966652378	0.0641484190911932	-0.08449052913994398	-0.2610520840212817	0.9464931337461245	-0.04322361399618157	0.4702920004757813	-0.7845616649303909	1.370699917687839	1.370699917687724	0.07665177796759352	-9.284085982613717e-06	0.4571633940213619	0.110069139574468	-0.2306748651275886	0.02929081584734707	-0.001217866966067253	-0.2430897033710506	0.03953735658044732	0.04637668686464348	0.3101959662964254	-32.10044928273477	-17.05777159789698	5.162955141318428	-2.368057728509281	-714.7791094736539	-80.05330168766224	-12.84945434187617	0.08110062491128422	0.4327829677245979	0.02848821706503461	-1.471568903800317	0.2569463919497001	-0.5833113574860909	1.702417115234139	-1.62691276031498	-1.626912760314984	-0.1611910191394989	0.009228342252193676	-0.3180528125424955	0.2399764044436079	-3.285087743105918e-08	-2.557526573710364e-07	1.326218045502081e-07	-3.388909786724159e-08	-3.025271608739549e-08	-1.366199209892188e-07	-4.288405110375464e-08
